Coordinates
version=1
nRows=8
nColumns=40
inDegrees=yes

Units are S.I. units (second, meters, Newtons, ...)
Angles are in degrees.

endheader
time	pelvis_tilt	pelvis_list	pelvis_rotation	pelvis_tx	pelvis_ty	pelvis_tz	hip_flexion_r	hip_adduction_r	hip_rotation_r	knee_angle_r	knee_angle_r_beta	ankle_angle_r	subtalar_angle_r	mtp_angle_r	hip_flexion_l	hip_adduction_l	hip_rotation_l	knee_angle_l	knee_angle_l_beta	ankle_angle_l	subtalar_angle_l	mtp_angle_l	lumbar_extension	lumbar_bending	lumbar_rotation	arm_flex_r	arm_add_r	arm_rot_r	elbow_flex_r	pro_sup_r	wrist_flex_r	wrist_dev_r	arm_flex_l	arm_add_l	arm_rot_l	elbow_flex_l	pro_sup_l	wrist_flex_l	wrist_dev_l
     31.41500000	     -4.34676327	     -4.58347634	     -3.09556728	      1.00873909	      0.93218523	      0.43144567	     38.53876464	     -5.05802343	     -4.62473813	     62.63881799	     62.63881799	     -2.73156737	    -14.63626135	     -0.51590496	     12.34069874	     -6.01474294	     -7.28776216	     21.30241606	     21.30241606	     14.85980957	    -11.66614528	      0.35730951	    -12.47761708	      5.33366346	      3.87569170	     11.14896669	    -14.22911445	     -0.02000021	     76.25129258	     45.47504507	      0.00000000	      0.00000000	     19.66912696	    -16.46765081	      2.86531088	     60.51552862	     46.71635626	      0.00000000	      0.00000000
     31.42657143	     -4.36943747	     -4.72093668	     -3.48414972	      1.00810390	      0.93249831	      0.43208324	     39.13947467	     -4.65868140	     -4.90864602	     59.76790389	     59.76790389	     -2.42351153	    -13.73257903	     -0.42084995	     11.36968886	     -6.16045892	     -7.65337496	     20.58935234	     20.58935234	     15.12591436	    -11.52175267	      0.29591131	    -12.68366632	      5.50641350	      4.15108743	      9.38358426	    -14.60140287	      0.13129269	     73.53216358	     45.54925901	      0.00000000	      0.00000000	     21.23085227	    -16.90358099	      2.65727914	     62.08566581	     46.76892020	      0.00000000	      0.00000000
     31.43814286	     -4.33660591	     -4.60184478	     -3.96817045	      1.00767309	      0.93283238	      0.43280947	     39.51749346	     -4.39862252	     -4.93726306	     56.53203189	     56.53203189	     -2.25188182	    -12.71547261	     -0.81154048	     10.25552668	     -6.03669382	     -8.30257138	     19.74148740	     19.74148740	     15.06595003	    -11.28587997	     -0.37821982	    -12.72926392	      5.24912099	      3.70069038	     10.23910198	    -13.78810478	     -0.17038239	     64.52508929	     45.84343247	      0.00000000	      0.00000000	     21.68391309	    -18.38559118	      3.31587408	     65.78338461	     46.80191065	      0.00000000	      0.00000000
     31.44971429	     -4.29171441	     -4.58023173	     -4.37513443	      1.00747370	      0.93299561	      0.43353941	     39.62796387	     -4.08455039	     -5.12172804	     52.95685312	     52.95685312	     -2.06062420	    -11.43960018	     -1.36764569	      9.12155852	     -5.97213980	     -8.75257677	     18.89079546	     18.89079546	     15.08414301	    -11.16900403	     -0.91754065	    -12.89855235	      5.18983461	      3.22936109	     10.19137333	    -13.72690124	      0.79945787	     58.38155879	     45.97448999	      0.00000000	      0.00000000	     22.12157910	    -19.41998229	      2.45223061	     69.16508004	     46.96483442	      0.00000000	      0.00000000
     31.46128571	     -4.28507690	     -4.52476674	     -4.74144217	      1.00746250	      0.93294144	      0.43431245	     39.58095304	     -3.80177494	     -5.34372233	     49.11905579	     49.11905579	     -1.80301113	     -9.92720094	     -1.69486974	      8.04571157	     -5.87884785	     -9.24099482	     18.08660205	     18.08660205	     15.20740678	    -10.86528863	     -1.30844954	    -12.99971102	      5.11649120	      3.22460923	      9.68110799	    -13.81737596	      1.22575346	     52.82020321	     46.10603708	      0.00000000	      0.00000000	     23.03504485	    -20.13528647	      2.16765035	     71.81843298	     47.07602831	      0.00000000	      0.00000000
     31.47285714	     -4.23858215	     -4.54500023	     -5.03069305	      1.00764387	      0.93276289	      0.43504074	     39.23813630	     -3.49345030	     -5.75206110	     45.01332398	     45.01332398	     -1.42446321	     -8.14661018	     -1.49227420	      6.97165706	     -5.84943457	     -9.64129519	     17.39051829	     17.39051829	     15.49109468	    -10.58629276	     -1.43150227	    -13.17613324	      5.16573048	      3.76421585	      7.87031833	    -14.50687874	      1.36926506	     50.31233797	     46.17259489	      0.00000000	      0.00000000	     24.44417061	    -20.17541015	      1.97699196	     73.65530907	     47.13678707	      0.00000000	      0.00000000
     31.48442857	     -4.27131344	     -4.44023584	     -5.26778549	      1.00801658	      0.93207839	      0.43583116	     38.84872461	     -3.26944854	     -6.06922405	     40.84698433	     40.84698433	     -1.01827476	     -6.32110004	     -1.64850682	      5.97885099	     -5.71572696	    -10.17948169	     16.65586022	     16.65586022	     15.58571222	    -10.03147793	     -2.30414857	    -13.13551110	      5.03370657	      3.34171779	      8.44543631	    -13.97452245	      1.38333608	     42.30058292	     46.41882873	      0.00000000	      0.00000000	     24.98282307	    -21.56159699	      2.33019247	     76.88501287	     47.21903876	      0.00000000	      0.00000000
     31.49600000	     -4.30410798	     -4.50304502	     -5.37975824	      1.00861945	      0.93122181	      0.43653324	     38.16011236	     -2.92579359	     -6.63808424	     36.45757198	     36.45757198	     -0.58128008	     -4.44196235	     -1.13368500	      5.06838125	     -5.73485544	    -10.40112374	     16.10966399	     16.10966399	     15.92532483	     -9.72143408	     -2.54145769	    -13.15851755	      5.21786804	      3.67150293	      6.58597502	    -14.54011012	      1.48502121	     40.32471519	     46.46866624	      0.00000000	      0.00000000	     26.20017192	    -21.63812867	      2.02918443	     78.62803768	     47.28468373	      0.00000000	      0.00000000
